Coordinates
version=1
nRows=16
nColumns=40
inDegrees=yes

Units are S.I. units (second, meters, Newtons, ...)
If the header above contains a line with 'inDegrees', this indicates whether rotational values are in degrees (yes) or radians (no).

endheader
time	pelvis_tilt	pelvis_list	pelvis_rotation	pelvis_tx	pelvis_ty	pelvis_tz	hip_flexion_r	hip_adduction_r	hip_rotation_r	knee_angle_r	knee_angle_r_beta	ankle_angle_r	subtalar_angle_r	mtp_angle_r	hip_flexion_l	hip_adduction_l	hip_rotation_l	knee_angle_l	knee_angle_l_beta	ankle_angle_l	subtalar_angle_l	mtp_angle_l	lumbar_extension	lumbar_bending	lumbar_rotation	arm_flex_r	arm_add_r	arm_rot_r	elbow_flex_r	pro_sup_r	wrist_flex_r	wrist_dev_r	arm_flex_l	arm_add_l	arm_rot_l	elbow_flex_l	pro_sup_l	wrist_flex_l	wrist_dev_l
      8.80000000	     -4.54778615	    -23.22211505	    -93.59448111	      0.44253486	      0.87840839	     -0.46905754	    -29.98599635	    -22.20180274	    -39.96109827	     47.11073551	      0.82223745	     39.64592071	      0.00000000	      0.00000000	     15.50789392	     29.98679758	     13.52113605	     64.13400614	      1.11934957	    -11.04530715	      0.00000000	      0.00000000	     89.99017253	     89.98957502	     89.99017014	     62.87791445	     59.81699178	     30.82322271	     10.47299610	      1.42018868	      0.00000000	      0.00000000	    -51.45755304	    -30.30314745	    -87.72803167	     80.43671749	     89.20553753	      0.00000000	      0.00000000
      8.80500000	     -4.57130069	    -23.20490822	    -93.59253037	      0.44257112	      0.87855430	     -0.46899541	    -29.98599198	    -22.15408294	    -39.96108849	     47.05181696	      0.82120913	     39.60850510	      0.00000000	      0.00000000	     15.52753195	     29.98677971	     13.57813182	     64.14663978	      1.11957007	    -11.09267955	      0.00000000	      0.00000000	     89.99017311	     89.98956521	     89.99017072	     62.85693605	     59.82951008	     30.83200008	     10.45917209	      1.42460714	      0.00000000	      0.00000000	    -51.43565920	    -30.30155527	    -87.70816119	     80.41999999	     89.20752573	      0.00000000	      0.00000000
      8.81000000	     -4.60259097	    -23.18208767	    -93.60324931	      0.44257351	      0.87869707	     -0.46886395	    -29.98599257	    -22.10163263	    -39.96109409	     46.98189578	      0.81998877	     39.57950551	      0.00000000	      0.00000000	     15.49425578	     29.98678853	     13.67506058	     64.10943146	      1.11892066	    -11.09899599	      0.00000000	      0.00000000	     89.99017465	     89.98955319	     89.99017223	     62.83575252	     59.84492618	     30.84704476	     10.44185397	      1.42556922	      0.00000000	      0.00000000	    -51.39442860	    -30.29986370	    -87.68605208	     80.38224794	     89.21119783	      0.00000000	      0.00000000
      8.81500000	     -4.62465367	    -23.15545483	    -93.61628203	      0.44260735	      0.87891039	     -0.46873287	    -29.98600373	    -22.05629646	    -39.96112774	     46.88948553	      0.81837591	     39.54134024	      0.00000000	      0.00000000	     15.46450373	     29.98679262	     13.77109497	     64.05057434	      1.11789341	    -11.07921157	      0.00000000	      0.00000000	     89.99017629	     89.98954484	     89.99017386	     62.81981826	     59.86490150	     30.86715902	     10.42794066	      1.42459124	      0.00000000	      0.00000000	    -51.35871612	    -30.31603271	    -87.68051026	     80.33075422	     89.21556649	      0.00000000	      0.00000000
      8.82000000	     -4.65249593	    -23.12737806	    -93.62353146	      0.44262550	      0.87905049	     -0.46868101	    -29.98601258	    -21.99730321	    -39.96112512	     46.80024264	      0.81681832	     39.51855057	      0.00000000	      0.00000000	     15.43336436	     29.98679871	     13.88473628	     63.99956077	      1.11700306	    -11.04753200	      0.00000000	      0.00000000	     89.99017758	     89.98953268	     89.99017516	     62.78315673	     59.88438506	     30.88419974	     10.41167818	      1.42283954	      0.00000000	      0.00000000	    -51.32655779	    -30.31816609	    -87.67256462	     80.28779009	     89.21632298	      0.00000000	      0.00000000
      8.82500000	     -4.68022574	    -23.11522056	    -93.63127255	      0.44265711	      0.87921210	     -0.46863893	    -29.98601593	    -21.95522573	    -39.96108933	     46.75152618	      0.81596806	     39.49516709	      0.00000000	      0.00000000	     15.39723011	     29.98679394	     13.98478141	     63.96492025	      1.11639846	    -11.00671924	      0.00000000	      0.00000000	     89.99017495	     89.98951510	     89.99017251	     62.75277309	     59.88969178	     30.89900730	     10.40292972	      1.42259218	      0.00000000	      0.00000000	    -51.29041921	    -30.32593829	    -87.65572963	     80.25597337	     89.21384113	      0.00000000	      0.00000000
      8.83000000	     -4.71057639	    -23.09534440	    -93.65080317	      0.44267552	      0.87941464	     -0.46855729	    -29.98601929	    -21.90801193	    -39.96107101	     46.67613806	      0.81465229	     39.46171210	      0.00000000	      0.00000000	     15.34685906	     29.98680044	     14.10309009	     63.90169474	      1.11529497	    -10.94737675	      0.00000000	      0.00000000	     89.99017591	     89.98950201	     89.99017349	     62.72275563	     59.90013538	     30.91717920	     10.39800372	      1.42022067	      0.00000000	      0.00000000	    -51.24027666	    -30.33636307	    -87.60420537	     80.18926610	     89.22686115	      0.00000000	      0.00000000
      8.83500000	     -4.74527104	    -23.07538611	    -93.66555350	      0.44268543	      0.87958623	     -0.46852089	    -29.98603196	    -21.84524000	    -39.96105525	     46.59104162	      0.81316708	     39.43713961	      0.00000000	      0.00000000	     15.29755396	     29.98681168	     14.24214709	     63.84445051	      1.11429587	    -10.86671427	      0.00000000	      0.00000000	     89.99017521	     89.98947979	     89.99017275	     62.68012553	     59.91587030	     30.93903911	     10.38405389	      1.41720464	      0.00000000	      0.00000000	    -51.21344785	    -30.32608597	    -87.63063372	     80.17546815	     89.21817354	      0.00000000	      0.00000000
      8.84000000	     -4.78431183	    -23.05085718	    -93.68920036	      0.44273086	      0.87974681	     -0.46841385	    -29.98603563	    -21.78637736	    -39.96103040	     46.50624038	      0.81168702	     39.41674337	      0.00000000	      0.00000000	     15.25775481	     29.98681636	     14.36640313	     63.79323554	      1.11340200	    -10.78152358	      0.00000000	      0.00000000	     89.99017251	     89.98946735	     89.99017008	     62.63926207	     59.93839128	     30.96748545	     10.36650794	      1.41471453	      0.00000000	      0.00000000	    -51.18596680	    -30.30200354	    -87.60043068	     80.15932182	     89.21950123	      0.00000000	      0.00000000
      8.84500000	     -4.81697869	    -23.01883790	    -93.72252119	      0.44267577	      0.87999747	     -0.46824371	    -29.98604396	    -21.72205235	    -39.96100455	     46.39065802	      0.80966972	     39.38949290	      0.00000000	      0.00000000	     15.21499204	     29.98682531	     14.50228043	     63.73146783	      1.11232395	    -10.69977633	      0.00000000	      0.00000000	     89.99017382	     89.98945228	     89.99017137	     62.59039188	     59.96666136	     30.99748633	     10.35078164	      1.41054349	      0.00000000	      0.00000000	    -51.14402971	    -30.26037955	    -87.57323389	     80.14536330	     89.21914895	      0.00000000	      0.00000000
      8.85000000	     -4.85266208	    -22.98754955	    -93.75129981	      0.44267869	      0.88024158	     -0.46806328	    -29.98606315	    -21.66105492	    -39.96096105	     46.28599486	      0.80784301	     39.35806160	      0.00000000	      0.00000000	     15.17741201	     29.98683701	     14.62195097	     63.66683155	      1.11119583	    -10.62453599	      0.00000000	      0.00000000	     89.99017138	     89.98944116	     89.99016894	     62.55901941	     59.98382166	     31.03621590	     10.33673344	      1.40679255	      0.00000000	      0.00000000	    -51.09246561	    -30.23802711	    -87.56720485	     80.10560953	     89.22245748	      0.00000000	      0.00000000
      8.85500000	     -4.88989102	    -22.95868590	    -93.77201511	      0.44268596	      0.88041149	     -0.46791870	    -29.98606654	    -21.59926896	    -39.96094218	     46.19930025	      0.80632990	     39.33075760	      0.00000000	      0.00000000	     15.17823120	     29.98683602	     14.71574140	     63.65918402	      1.11106236	    -10.58867704	      0.00000000	      0.00000000	     89.99017131	     89.98943173	     89.99016887	     62.53179319	     59.99932073	     31.06986896	     10.33226432	      1.40736062	      0.00000000	      0.00000000	    -51.03804160	    -30.21623577	    -87.57230976	     80.06882902	     89.21864153	      0.00000000	      0.00000000
      8.86000000	     -4.92655996	    -22.92028197	    -93.79560411	      0.44267965	      0.88060388	     -0.46769062	    -29.98608287	    -21.52950929	    -39.96094525	     46.09816983	      0.80456484	     39.30390898	      0.00000000	      0.00000000	     15.15987994	     29.98684889	     14.82414371	     63.62271515	      1.11042586	    -10.54541718	      0.00000000	      0.00000000	     89.99016844	     89.98942639	     89.99016601	     62.49922477	     60.02362118	     31.11460673	     10.31554997	      1.40590136	      0.00000000	      0.00000000	    -50.96379484	    -30.19235714	    -87.57548041	     80.02197510	     89.22116260	      0.00000000	      0.00000000
      8.86500000	     -4.96034786	    -22.87892838	    -93.81693590	      0.44267587	      0.88079353	     -0.46747116	    -29.98610200	    -21.45853265	    -39.96095538	     45.98501453	      0.80258991	     39.28084155	      0.00000000	      0.00000000	     15.14009298	     29.98685886	     14.94146677	     63.57741621	      1.10963524	    -10.48788621	      0.00000000	      0.00000000	     89.99017119	     89.98942279	     89.99016876	     62.46565630	     60.04736499	     31.16067023	     10.30700528	      1.40548645	      0.00000000	      0.00000000	    -50.88389930	    -30.16416171	    -87.58153391	     79.96387785	     89.22316160	      0.00000000	      0.00000000
      8.87000000	     -4.99210790	    -22.85043946	    -93.83827684	      0.44266540	      0.88098812	     -0.46725994	    -29.98611816	    -21.40540119	    -39.96092442	     45.89926214	      0.80109325	     39.23815387	      0.00000000	      0.00000000	     15.11217556	     29.98686580	     15.04313609	     63.53433714	      1.10888337	    -10.42562345	      0.00000000	      0.00000000	     89.99018065	     89.98940446	     89.99017827	     62.43998377	     60.05363551	     31.22419492	     10.29393975	      1.40137645	      0.00000000	      0.00000000	    -50.77119898	    -30.15469520	    -87.56995067	     79.86892333	     89.24211086	      0.00000000	      0.00000000
      8.87500000	     -5.03493308	    -22.82289903	    -93.85468121	      0.44266971	      0.88105941	     -0.46703491	    -29.98613199	    -21.35570716	    -39.96094184	     45.85707411	      0.80035693	     39.21473769	      0.00000000	      0.00000000	     15.09699516	     29.98686419	     15.14967986	     63.52826954	      1.10877747	    -10.38259393	      0.00000000	      0.00000000	     89.99018751	     89.98940843	     89.99018510	     62.41722918	     60.05868764	     31.26852877	     10.28915612	      1.40502945	      0.00000000	      0.00000000	    -50.72363781	    -30.11724159	    -87.58399727	     79.87780538	     89.22003598	      0.00000000	      0.00000000
